<svg width="42" height="21" viewBox="0 0 42 21" fill="none" xmlns="http://www.w3.org/2000/svg">
<path d="M20.7271 0C13.9843 0.014164 7.08373 3.01472 0 9.50325C13.919 25.371 27.8391 23.9543 41.7581 9.50325C35.1128 3.54024 28.3292 0.191898 21.3791 0.00810142C21.1619 0.00236018 20.9446 -0.000366047 20.7271 9.11661e-05V0ZM20.7703 2.86606C20.9281 2.86573 21.0857 2.86764 21.2433 2.8718C26.2852 3.00508 31.2062 5.43427 36.0272 9.75987C25.9296 20.2439 15.8315 21.2712 5.73331 9.75987C10.8724 5.05275 15.8784 2.87585 20.7699 2.86572L20.7703 2.86606ZM20.9325 4.42667C19.2678 4.42667 17.6712 5.06814 16.4941 6.20997C15.317 7.3518 14.6557 8.90046 14.6557 10.5152C14.6557 11.3148 14.8181 12.1065 15.1335 12.8452C15.4489 13.584 15.9113 14.2552 16.4941 14.8205C17.6712 15.9624 19.2678 16.6038 20.9325 16.6038C22.5972 16.6038 24.1937 15.9624 25.3708 14.8205C26.5479 13.6787 27.2092 12.13 27.2092 10.5152C27.2075 10.0075 27.1404 9.50196 27.0093 9.01039L20.9325 10.5152C20.9325 10.5152 23.5537 6.98433 24.6175 5.59456C23.547 4.8378 22.2571 4.42896 20.9325 4.42657L20.9325 4.42667Z" fill="white" fill-opacity="0.75"/>
<ellipse cx="21" cy="10.5" rx="7" ry="6.5" fill="#D9D9D9"/>
</svg>
