<svg width="32" height="32" viewBox="0 0 32 32" fill="none" xmlns="http://www.w3.org/2000/svg">
<circle cx="16" cy="16" r="16" fill="#35A7FF"/>
<path d="M6.58594 10.5662L18.6553 5.56641" stroke="white" stroke-width="1.29314"/>
<path d="M6.58594 10.5703L18.6553 12.2369" stroke="white" stroke-width="1.29314"/>
<path d="M6.58594 10.5703L18.6553 18.9033" stroke="white" stroke-width="1.29314"/>
<path d="M6.58594 10.5703L18.6553 25.5697" stroke="white" stroke-width="1.29314"/>
<path d="M6.58594 20.5664L18.6553 25.5662" stroke="white" stroke-width="1.29314"/>
<path d="M6.58594 20.5689L18.6553 18.9023" stroke="white" stroke-width="1.29314"/>
<path d="M6.58594 20.5673L18.6553 12.2344" stroke="white" stroke-width="1.29314"/>
<path d="M6.58594 20.5657L18.6553 5.56641" stroke="white" stroke-width="1.29314"/>
<path d="M18.6562 5.56641L26.4151 15.566L18.6562 12.3397" stroke="white" stroke-width="1.29314"/>
<path d="M18.6562 18.8996L26.4151 15.5664" stroke="white" stroke-width="1.29314"/>
<path d="M18.6562 25.566L26.4151 15.5664" stroke="white" stroke-width="1.29314"/>
<path d="M26.4141 13.2861C27.7304 13.2861 28.7852 14.3155 28.7852 15.5703C28.7851 16.825 27.7303 17.8545 26.4141 17.8545C25.098 17.8543 24.044 16.8249 24.0439 15.5703C24.0439 14.3156 25.0979 13.2863 26.4141 13.2861Z" fill="white" stroke="#35A7FF" stroke-width="0.431047"/>
<path d="M18.6562 9.9502C19.9725 9.9502 21.0273 10.9796 21.0273 12.2344C21.0273 13.4891 19.9725 14.5186 18.6562 14.5186C17.3402 14.5184 16.2862 13.489 16.2861 12.2344C16.2861 10.9797 17.3401 9.95038 18.6562 9.9502Z" fill="white" stroke="#35A7FF" stroke-width="0.431047"/>
<path d="M18.6562 3.28613C19.9725 3.28613 21.0273 4.31553 21.0273 5.57031C21.0273 6.82504 19.9725 7.85449 18.6562 7.85449C17.3402 7.85431 16.2862 6.82493 16.2861 5.57031C16.2861 4.31565 17.3401 3.28631 18.6562 3.28613Z" fill="white" stroke="#35A7FF" stroke-width="0.431047"/>
<path d="M18.6562 16.6143C19.9725 16.6143 21.0273 17.6437 21.0273 18.8984C21.0273 20.1532 19.9725 21.1826 18.6562 21.1826C17.3402 21.1824 16.2862 20.1531 16.2861 18.8984C16.2861 17.6438 17.3401 16.6144 18.6562 16.6143Z" fill="white" stroke="#35A7FF" stroke-width="0.431047"/>
<path d="M18.6562 23.2861C19.9725 23.2861 21.0273 24.3155 21.0273 25.5703C21.0273 26.825 19.9725 27.8545 18.6562 27.8545C17.3402 27.8543 16.2862 26.8249 16.2861 25.5703C16.2861 24.3156 17.3401 23.2863 18.6562 23.2861Z" fill="white" stroke="#35A7FF" stroke-width="0.431047"/>
<path d="M6.58594 18.2822C7.90223 18.2822 8.95703 19.3116 8.95703 20.5664C8.95697 21.8211 7.90219 22.8506 6.58594 22.8506C5.26984 22.8504 4.21588 21.821 4.21582 20.5664C4.21582 19.3117 5.2698 18.2824 6.58594 18.2822Z" fill="white" stroke="#35A7FF" stroke-width="0.431047"/>
<path d="M6.58594 8.28223C7.90223 8.28223 8.95703 9.31163 8.95703 10.5664C8.95697 11.8211 7.90219 12.8506 6.58594 12.8506C5.26984 12.8504 4.21588 11.821 4.21582 10.5664C4.21582 9.31174 5.2698 8.28241 6.58594 8.28223Z" fill="white" stroke="#35A7FF" stroke-width="0.431047"/>
</svg>
