<svg width="1920" height="450" viewBox="0 0 1920 450" fill="none" xmlns="http://www.w3.org/2000/svg">
<mask id="path-1-outside-1_25334_1118" maskUnits="userSpaceOnUse" x="1668.3" y="69.9375" width="250" height="144" fill="black">
<rect fill="white" x="1668.3" y="69.9375" width="250" height="144"/>
<path d="M1726.05 209.853C1715.22 209.853 1705.62 208.819 1697.22 206.752C1688.83 204.684 1680.47 200.793 1672.14 195.077V160.599H1696.86L1699.6 178.294C1701.54 180.483 1704.98 182.337 1709.9 183.858C1714.83 185.317 1720.21 186.047 1726.05 186.047C1730.12 186.047 1733.53 185.56 1736.26 184.587C1739 183.554 1741.07 182.064 1742.47 180.118C1743.86 178.172 1744.56 175.831 1744.56 173.095C1744.56 170.48 1743.89 168.139 1742.56 166.071C1741.28 164.004 1739.15 162.058 1736.17 160.234C1733.19 158.349 1729.18 156.433 1724.13 154.487C1712.76 150.839 1703.43 147.13 1696.13 143.36C1688.83 139.589 1683.39 135.12 1679.8 129.951C1676.28 124.783 1674.51 118.368 1674.51 110.706C1674.51 103.348 1676.61 96.9327 1680.81 91.46C1685 85.9265 1690.78 81.5787 1698.14 78.4167C1705.49 75.2547 1713.92 73.5825 1723.4 73.4001C1734.23 73.1569 1743.8 74.2514 1752.13 76.6837C1760.46 79.0552 1767.82 82.6733 1774.21 87.5379V119.553H1750.49L1746.75 101.767C1744.68 100.733 1741.74 99.7907 1737.9 98.9394C1734.07 98.0881 1730 97.6624 1725.68 97.6624C1721.97 97.6624 1718.66 98.1489 1715.74 99.1218C1712.88 100.095 1710.6 101.554 1708.9 103.5C1707.26 105.446 1706.44 107.878 1706.44 110.797C1706.44 113.168 1707.14 115.297 1708.53 117.182C1709.93 119.006 1712.4 120.861 1715.92 122.746C1719.45 124.57 1724.38 126.698 1730.7 129.131C1745.78 133.569 1757.21 139.133 1764.99 145.822C1772.84 152.45 1776.76 161.48 1776.76 172.912C1776.76 180.756 1774.63 187.445 1770.38 192.979C1766.12 198.451 1760.19 202.647 1752.59 205.566C1744.99 208.424 1736.14 209.853 1726.05 209.853ZM1823.03 207.938V189.239L1836.89 186.32V99.9427H1816.37L1815.55 114.263H1791.38V75.1331H1914.78V114.263H1890.34L1889.61 99.9427H1868.91V186.32L1882.77 189.239V207.938H1823.03Z"/>
</mask>
<path d="M1726.05 209.853C1715.22 209.853 1705.62 208.819 1697.22 206.752C1688.83 204.684 1680.47 200.793 1672.14 195.077V160.599H1696.86L1699.6 178.294C1701.54 180.483 1704.98 182.337 1709.9 183.858C1714.83 185.317 1720.21 186.047 1726.05 186.047C1730.12 186.047 1733.53 185.56 1736.26 184.587C1739 183.554 1741.07 182.064 1742.47 180.118C1743.86 178.172 1744.56 175.831 1744.56 173.095C1744.56 170.48 1743.89 168.139 1742.56 166.071C1741.28 164.004 1739.15 162.058 1736.17 160.234C1733.19 158.349 1729.18 156.433 1724.13 154.487C1712.76 150.839 1703.43 147.13 1696.13 143.36C1688.83 139.589 1683.39 135.12 1679.8 129.951C1676.28 124.783 1674.51 118.368 1674.51 110.706C1674.51 103.348 1676.61 96.9327 1680.81 91.46C1685 85.9265 1690.78 81.5787 1698.14 78.4167C1705.49 75.2547 1713.92 73.5825 1723.4 73.4001C1734.23 73.1569 1743.8 74.2514 1752.13 76.6837C1760.46 79.0552 1767.82 82.6733 1774.21 87.5379V119.553H1750.49L1746.75 101.767C1744.68 100.733 1741.74 99.7907 1737.9 98.9394C1734.07 98.0881 1730 97.6624 1725.68 97.6624C1721.97 97.6624 1718.66 98.1489 1715.74 99.1218C1712.88 100.095 1710.6 101.554 1708.9 103.5C1707.26 105.446 1706.44 107.878 1706.44 110.797C1706.44 113.168 1707.14 115.297 1708.53 117.182C1709.93 119.006 1712.4 120.861 1715.92 122.746C1719.45 124.57 1724.38 126.698 1730.7 129.131C1745.78 133.569 1757.21 139.133 1764.99 145.822C1772.84 152.45 1776.76 161.48 1776.76 172.912C1776.76 180.756 1774.63 187.445 1770.38 192.979C1766.12 198.451 1760.19 202.647 1752.59 205.566C1744.99 208.424 1736.14 209.853 1726.05 209.853ZM1823.03 207.938V189.239L1836.89 186.32V99.9427H1816.37L1815.55 114.263H1791.38V75.1331H1914.78V114.263H1890.34L1889.61 99.9427H1868.91V186.32L1882.77 189.239V207.938H1823.03Z" fill="black"/>
<path d="M1672.14 195.077H1668.88V196.793L1670.3 197.765L1672.14 195.077ZM1672.14 160.599V157.339H1668.88V160.599H1672.14ZM1696.86 160.599L1700.08 160.1L1699.65 157.339H1696.86V160.599ZM1699.6 178.294L1696.37 178.792L1696.52 179.741L1697.16 180.459L1699.6 178.294ZM1709.9 183.858L1708.94 186.973L1708.96 186.978L1708.98 186.983L1709.9 183.858ZM1736.26 184.587L1737.36 187.659L1737.39 187.648L1737.42 187.637L1736.26 184.587ZM1742.56 166.071L1739.78 167.784L1739.8 167.813L1739.82 167.842L1742.56 166.071ZM1736.17 160.234L1734.43 162.989L1734.45 163.001L1734.47 163.014L1736.17 160.234ZM1724.13 154.487L1725.3 151.446L1725.22 151.412L1725.13 151.383L1724.13 154.487ZM1679.8 129.951L1677.11 131.789L1677.12 131.8L1677.12 131.81L1679.8 129.951ZM1680.81 91.46L1683.39 93.4435L1683.4 93.4366L1683.4 93.4297L1680.81 91.46ZM1723.4 73.4001L1723.46 76.6594L1723.48 76.6592L1723.4 73.4001ZM1752.13 76.6837L1751.22 79.813L1751.23 79.8161L1751.24 79.8191L1752.13 76.6837ZM1774.21 87.5379H1777.47V85.9234L1776.18 84.9449L1774.21 87.5379ZM1774.21 119.553V122.813H1777.47V119.553H1774.21ZM1750.49 119.553L1747.3 120.224L1747.85 122.813H1750.49V119.553ZM1746.75 101.767L1749.94 101.096L1749.62 99.5553L1748.21 98.8512L1746.75 101.767ZM1715.74 99.1218L1714.71 96.0292L1714.7 96.0324L1714.69 96.0358L1715.74 99.1218ZM1708.9 103.5L1706.45 101.353L1706.43 101.375L1706.41 101.398L1708.9 103.5ZM1708.53 117.182L1705.92 119.124L1705.93 119.145L1705.95 119.165L1708.53 117.182ZM1715.92 122.746L1714.39 125.621L1714.41 125.631L1714.43 125.641L1715.92 122.746ZM1730.7 129.131L1729.53 132.173L1729.65 132.221L1729.78 132.258L1730.7 129.131ZM1764.99 145.822L1762.87 148.295L1762.88 148.304L1762.89 148.312L1764.99 145.822ZM1770.38 192.979L1772.95 194.98L1772.95 194.973L1772.96 194.966L1770.38 192.979ZM1752.59 205.566L1753.74 208.617L1753.75 208.613L1753.76 208.609L1752.59 205.566ZM1726.05 209.853V206.593C1715.42 206.593 1706.09 205.578 1698 203.586L1697.22 206.752L1696.44 209.917C1705.15 212.061 1715.02 213.113 1726.05 213.113V209.853ZM1697.22 206.752L1698 203.586C1690.05 201.627 1682.05 197.92 1673.99 192.389L1672.14 195.077L1670.3 197.765C1678.9 203.666 1687.61 207.741 1696.44 209.917L1697.22 206.752ZM1672.14 195.077H1675.4V160.599H1672.14H1668.88V195.077H1672.14ZM1672.14 160.599V163.859H1696.86V160.599V157.339H1672.14V160.599ZM1696.86 160.599L1693.64 161.097L1696.37 178.792L1699.6 178.294L1702.82 177.795L1700.08 160.1L1696.86 160.599ZM1699.6 178.294L1697.16 180.459C1699.7 183.317 1703.82 185.393 1708.94 186.973L1709.9 183.858L1710.86 180.743C1706.13 179.282 1703.38 177.649 1702.03 176.128L1699.6 178.294ZM1709.9 183.858L1708.98 186.983C1714.24 188.543 1719.94 189.307 1726.05 189.307V186.047V182.787C1720.48 182.787 1715.42 182.091 1710.83 180.732L1709.9 183.858ZM1726.05 186.047V189.307C1730.36 189.307 1734.16 188.796 1737.36 187.659L1736.26 184.587L1735.17 181.516C1732.9 182.325 1729.89 182.787 1726.05 182.787V186.047ZM1736.26 184.587L1737.42 187.637C1740.62 186.427 1743.26 184.593 1745.11 182.021L1742.47 180.118L1739.82 178.215C1738.87 179.535 1737.38 180.68 1735.11 181.538L1736.26 184.587ZM1742.47 180.118L1745.11 182.021C1746.96 179.444 1747.82 176.413 1747.82 173.095H1744.56H1741.3C1741.3 175.249 1740.76 176.9 1739.82 178.215L1742.47 180.118ZM1744.56 173.095H1747.82C1747.82 169.892 1746.99 166.929 1745.29 164.3L1742.56 166.071L1739.82 167.842C1740.79 169.349 1741.3 171.068 1741.3 173.095H1744.56ZM1742.56 166.071L1745.33 164.358C1743.69 161.708 1741.11 159.436 1737.87 157.453L1736.17 160.234L1734.47 163.014C1737.19 164.68 1738.87 166.3 1739.78 167.784L1742.56 166.071ZM1736.17 160.234L1737.91 157.479C1734.69 155.436 1730.46 153.432 1725.3 151.446L1724.13 154.487L1722.96 157.529C1727.9 159.434 1731.7 161.261 1734.43 162.989L1736.17 160.234ZM1724.13 154.487L1725.13 151.383C1713.86 147.768 1704.71 144.122 1697.63 140.463L1696.13 143.36L1694.63 146.256C1702.15 150.137 1711.66 153.91 1723.14 157.591L1724.13 154.487ZM1696.13 143.36L1697.63 140.463C1690.66 136.865 1685.69 132.711 1682.48 128.093L1679.8 129.951L1677.12 131.81C1681.09 137.529 1687 142.314 1694.63 146.256L1696.13 143.36ZM1679.8 129.951L1682.5 128.114C1679.41 123.598 1677.77 117.861 1677.77 110.706H1674.51H1671.25C1671.25 118.874 1673.14 125.968 1677.11 131.789L1679.8 129.951ZM1674.51 110.706H1677.77C1677.77 104.014 1679.66 98.3077 1683.39 93.4435L1680.81 91.46L1678.22 89.4766C1673.56 95.5578 1671.25 102.682 1671.25 110.706H1674.51ZM1680.81 91.46L1683.4 93.4297C1687.21 88.4105 1692.5 84.3857 1699.42 81.4118L1698.14 78.4167L1696.85 75.4217C1689.05 78.7718 1682.79 83.4426 1678.21 89.4904L1680.81 91.46ZM1698.14 78.4167L1699.42 81.4118C1706.33 78.4439 1714.32 76.8352 1723.46 76.6594L1723.4 73.4001L1723.34 70.1408C1713.51 70.3298 1704.66 72.0655 1696.85 75.4217L1698.14 78.4167ZM1723.4 73.4001L1723.48 76.6592C1734.04 76.4217 1743.28 77.494 1751.22 79.813L1752.13 76.6837L1753.05 73.5544C1744.33 71.0088 1734.41 69.892 1723.33 70.141L1723.4 73.4001ZM1752.13 76.6837L1751.24 79.8191C1759.21 82.088 1766.2 85.5321 1772.23 90.131L1774.21 87.5379L1776.18 84.9449C1769.45 79.8145 1761.72 76.0225 1753.03 73.5483L1752.13 76.6837ZM1774.21 87.5379H1770.95V119.553H1774.21H1777.47V87.5379H1774.21ZM1774.21 119.553V116.293H1750.49V119.553V122.813H1774.21V119.553ZM1750.49 119.553L1753.68 118.883L1749.94 101.096L1746.75 101.767L1743.56 102.438L1747.3 120.224L1750.49 119.553ZM1746.75 101.767L1748.21 98.8512C1745.8 97.644 1742.55 96.6321 1738.61 95.7571L1737.9 98.9394L1737.2 102.122C1740.92 102.949 1743.57 103.822 1745.29 104.683L1746.75 101.767ZM1737.9 98.9394L1738.61 95.7571C1734.53 94.8493 1730.21 94.4025 1725.68 94.4025V97.6624V100.922C1729.79 100.922 1733.62 101.327 1737.2 102.122L1737.9 98.9394ZM1725.68 97.6624V94.4025C1721.69 94.4025 1718.02 94.9254 1714.71 96.0292L1715.74 99.1218L1716.77 102.214C1719.3 101.372 1722.25 100.922 1725.68 100.922V97.6624ZM1715.74 99.1218L1714.69 96.0358C1711.38 97.162 1708.58 98.9091 1706.45 101.353L1708.9 103.5L1711.35 105.647C1712.62 104.199 1714.38 103.027 1716.79 102.208L1715.74 99.1218ZM1708.9 103.5L1706.41 101.398C1704.2 104.017 1703.18 107.228 1703.18 110.797H1706.44H1709.7C1709.7 108.528 1710.32 106.875 1711.39 105.602L1708.9 103.5ZM1706.44 110.797H1703.18C1703.18 113.86 1704.1 116.671 1705.92 119.124L1708.53 117.182L1711.15 115.239C1710.18 113.922 1709.7 112.477 1709.7 110.797H1706.44ZM1708.53 117.182L1705.95 119.165C1707.77 121.536 1710.71 123.655 1714.39 125.621L1715.92 122.746L1717.46 119.871C1714.08 118.066 1712.1 116.476 1711.12 115.198L1708.53 117.182ZM1715.92 122.746L1714.43 125.641C1718.11 127.545 1723.16 129.723 1729.53 132.173L1730.7 129.131L1731.87 126.088C1725.59 123.673 1720.79 121.594 1717.42 119.85L1715.92 122.746ZM1730.7 129.131L1729.78 132.258C1744.63 136.629 1755.57 142.024 1762.87 148.295L1764.99 145.822L1767.12 143.35C1758.85 136.243 1746.93 130.51 1731.62 126.003L1730.7 129.131ZM1764.99 145.822L1762.89 148.312C1769.91 154.246 1773.5 162.318 1773.5 172.912H1776.76H1780.02C1780.02 160.643 1775.76 150.654 1767.1 143.332L1764.99 145.822ZM1776.76 172.912H1773.5C1773.5 180.131 1771.56 186.097 1767.79 190.991L1770.38 192.979L1772.96 194.966C1777.71 188.793 1780.02 181.382 1780.02 172.912H1776.76ZM1770.38 192.979L1767.8 190.977C1763.97 195.905 1758.57 199.779 1751.42 202.523L1752.59 205.566L1753.76 208.609C1761.82 205.515 1768.27 200.998 1772.95 194.98L1770.38 192.979ZM1752.59 205.566L1751.44 202.515C1744.29 205.206 1735.84 206.593 1726.05 206.593V209.853V213.113C1736.44 213.113 1745.69 211.642 1753.74 208.617L1752.59 205.566ZM1823.03 207.938H1819.77V211.197H1823.03V207.938ZM1823.03 189.239L1822.35 186.049L1819.77 186.594V189.239H1823.03ZM1836.89 186.32L1837.56 189.51L1840.15 188.965V186.32H1836.89ZM1836.89 99.9427H1840.15V96.6828H1836.89V99.9427ZM1816.37 99.9427V96.6828H1813.29L1813.11 99.7562L1816.37 99.9427ZM1815.55 114.263V117.523H1818.62L1818.8 114.45L1815.55 114.263ZM1791.38 114.263H1788.12V117.523H1791.38V114.263ZM1791.38 75.1331V71.8732H1788.12V75.1331H1791.38ZM1914.78 75.1331H1918.04V71.8732H1914.78V75.1331ZM1914.78 114.263V117.523H1918.04V114.263H1914.78ZM1890.34 114.263L1887.08 114.429L1887.24 117.523H1890.34V114.263ZM1889.61 99.9427L1892.87 99.7768L1892.71 96.6828H1889.61V99.9427ZM1868.91 99.9427V96.6828H1865.65V99.9427H1868.91ZM1868.91 186.32H1865.65V188.965L1868.23 189.51L1868.91 186.32ZM1882.77 189.239H1886.03V186.594L1883.44 186.049L1882.77 189.239ZM1882.77 207.938V211.197H1886.03V207.938H1882.77ZM1823.03 207.938H1826.29V189.239H1823.03H1819.77V207.938H1823.03ZM1823.03 189.239L1823.7 192.429L1837.56 189.51L1836.89 186.32L1836.22 183.13L1822.35 186.049L1823.03 189.239ZM1836.89 186.32H1840.15V99.9427H1836.89H1833.63V186.32H1836.89ZM1836.89 99.9427V96.6828H1816.37V99.9427V103.203H1836.89V99.9427ZM1816.37 99.9427L1813.11 99.7562L1812.29 114.076L1815.55 114.263L1818.8 114.45L1819.62 100.129L1816.37 99.9427ZM1815.55 114.263V111.003H1791.38V114.263V117.523H1815.55V114.263ZM1791.38 114.263H1794.64V75.1331H1791.38H1788.12V114.263H1791.38ZM1791.38 75.1331V78.3931H1914.78V75.1331V71.8732H1791.38V75.1331ZM1914.78 75.1331H1911.52V114.263H1914.78H1918.04V75.1331H1914.78ZM1914.78 114.263V111.003H1890.34V114.263V117.523H1914.78V114.263ZM1890.34 114.263L1893.6 114.097L1892.87 99.7768L1889.61 99.9427L1886.35 100.109L1887.08 114.429L1890.34 114.263ZM1889.61 99.9427V96.6828H1868.91V99.9427V103.203H1889.61V99.9427ZM1868.91 99.9427H1865.65V186.32H1868.91H1872.17V99.9427H1868.91ZM1868.91 186.32L1868.23 189.51L1882.1 192.429L1882.77 189.239L1883.44 186.049L1869.58 183.13L1868.91 186.32ZM1882.77 189.239H1879.51V207.938H1882.77H1886.03V189.239H1882.77ZM1882.77 207.938V204.678H1823.03V207.938V211.197H1882.77V207.938Z" fill="black" mask="url(#path-1-outside-1_25334_1118)"/>
<mask id="path-3-outside-2_25334_1118" maskUnits="userSpaceOnUse" x="1304.45" y="76.3652" width="349" height="326" fill="black">
<rect fill="white" x="1304.45" y="76.3652" width="349" height="326"/>
<path d="M1307.99 398.365V353.489L1340.83 346.484V131.735L1307.99 124.73V79.6347H1340.83H1418.98L1546.82 283.657H1548.13V131.735L1506.32 124.73V79.6347H1616.21H1649.27V124.73L1616.21 131.735V398.365H1540.47L1410.22 198.721H1408.91V346.484L1450.94 353.489V398.365H1307.99Z"/>
</mask>
<path d="M1307.99 398.365V353.489L1340.83 346.484V131.735L1307.99 124.73V79.6347H1340.83H1418.98L1546.82 283.657H1548.13V131.735L1506.32 124.73V79.6347H1616.21H1649.27V124.73L1616.21 131.735V398.365H1540.47L1410.22 198.721H1408.91V346.484L1450.94 353.489V398.365H1307.99Z" fill="black"/>
<path d="M1307.99 398.365H1304.73V401.625H1307.99V398.365ZM1307.99 353.489L1307.31 350.301L1304.73 350.851V353.489H1307.99ZM1340.83 346.484L1341.51 349.672L1344.09 349.122V346.484H1340.83ZM1340.83 131.735H1344.09V129.097L1341.51 128.547L1340.83 131.735ZM1307.99 124.73H1304.73V127.368L1307.31 127.918L1307.99 124.73ZM1307.99 79.6347V76.3747H1304.73V79.6347H1307.99ZM1418.98 79.6347L1421.74 77.9037L1420.78 76.3747H1418.98V79.6347ZM1546.82 283.657L1544.06 285.388L1545.02 286.917H1546.82V283.657ZM1548.13 283.657V286.917H1551.39V283.657H1548.13ZM1548.13 131.735H1551.39V128.976L1548.67 128.52L1548.13 131.735ZM1506.32 124.73H1503.06V127.489L1505.78 127.945L1506.32 124.73ZM1506.32 79.6347V76.3747H1503.06V79.6347H1506.32ZM1649.27 79.6347H1652.53V76.3747H1649.27V79.6347ZM1649.27 124.73L1649.94 127.919L1652.53 127.371V124.73H1649.27ZM1616.21 131.735L1615.54 128.546L1612.95 129.093V131.735H1616.21ZM1616.21 398.365V401.625H1619.47V398.365H1616.21ZM1540.47 398.365L1537.74 400.146L1538.71 401.625H1540.47V398.365ZM1410.22 198.721L1412.95 196.94L1411.99 195.461H1410.22V198.721ZM1408.91 198.721V195.461H1405.65V198.721H1408.91ZM1408.91 346.484H1405.65V349.246L1408.37 349.7L1408.91 346.484ZM1450.94 353.489H1454.2V350.727L1451.47 350.273L1450.94 353.489ZM1450.94 398.365V401.625H1454.2V398.365H1450.94ZM1307.99 398.365H1311.25V353.489H1307.99H1304.73V398.365H1307.99ZM1307.99 353.489L1308.67 356.677L1341.51 349.672L1340.83 346.484L1340.15 343.296L1307.31 350.301L1307.99 353.489ZM1340.83 346.484H1344.09V131.735H1340.83H1337.57V346.484H1340.83ZM1340.83 131.735L1341.51 128.547L1308.67 121.542L1307.99 124.73L1307.31 127.918L1340.15 134.923L1340.83 131.735ZM1307.99 124.73H1311.25V79.6347H1307.99H1304.73V124.73H1307.99ZM1307.99 79.6347V82.8946H1340.83V79.6347V76.3747H1307.99V79.6347ZM1340.83 79.6347V82.8946H1418.98V79.6347V76.3747H1340.83V79.6347ZM1418.98 79.6347L1416.21 81.3657L1544.06 285.388L1546.82 283.657L1549.58 281.926L1421.74 77.9037L1418.98 79.6347ZM1546.82 283.657V286.917H1548.13V283.657V280.397H1546.82V283.657ZM1548.13 283.657H1551.39V131.735H1548.13H1544.87V283.657H1548.13ZM1548.13 131.735L1548.67 128.52L1506.86 121.515L1506.32 124.73L1505.78 127.945L1547.59 134.95L1548.13 131.735ZM1506.32 124.73H1509.58V79.6347H1506.32H1503.06V124.73H1506.32ZM1506.32 79.6347V82.8946H1616.21V79.6347V76.3747H1506.32V79.6347ZM1616.21 79.6347V82.8946H1649.27V79.6347V76.3747H1616.21V79.6347ZM1649.27 79.6347H1646.01V124.73H1649.27H1652.53V79.6347H1649.27ZM1649.27 124.73L1648.59 121.541L1615.54 128.546L1616.21 131.735L1616.89 134.924L1649.94 127.919L1649.27 124.73ZM1616.21 131.735H1612.95V398.365H1616.21H1619.47V131.735H1616.21ZM1616.21 398.365V395.105H1540.47V398.365V401.625H1616.21V398.365ZM1540.47 398.365L1543.2 396.584L1412.95 196.94L1410.22 198.721L1407.49 200.502L1537.74 400.146L1540.47 398.365ZM1410.22 198.721V195.461H1408.91V198.721V201.981H1410.22V198.721ZM1408.91 198.721H1405.65V346.484H1408.91H1412.17V198.721H1408.91ZM1408.91 346.484L1408.37 349.7L1450.4 356.705L1450.94 353.489L1451.47 350.273L1409.44 343.268L1408.91 346.484ZM1450.94 353.489H1447.68V398.365H1450.94H1454.2V353.489H1450.94ZM1450.94 398.365V395.105H1307.99V398.365V401.625H1450.94V398.365Z" fill="black" mask="url(#path-3-outside-2_25334_1118)"/>
<mask id="path-5-outside-3_25334_1118" maskUnits="userSpaceOnUse" x="395.367" y="76.3652" width="460" height="326" fill="black">
<rect fill="white" x="395.367" y="76.3652" width="460" height="326"/>
<path d="M399.372 398.365V353.489L432.209 346.484V131.735L399.372 124.73V79.6347H432.209H549.762L626.818 289.568H628.131L702.998 79.6347H851.637V124.73L818.582 131.735V346.484L851.637 353.489V398.365H708.909V353.489L743.277 346.484V304.891L745.029 154.939L743.715 154.72L653.525 398.365H593.106L501.602 157.566L500.07 157.785L505.324 294.384V346.484L542.319 353.489V398.365H399.372Z"/>
</mask>
<path d="M399.372 398.365V353.489L432.209 346.484V131.735L399.372 124.73V79.6347H432.209H549.762L626.818 289.568H628.131L702.998 79.6347H851.637V124.73L818.582 131.735V346.484L851.637 353.489V398.365H708.909V353.489L743.277 346.484V304.891L745.029 154.939L743.715 154.72L653.525 398.365H593.106L501.602 157.566L500.07 157.785L505.324 294.384V346.484L542.319 353.489V398.365H399.372Z" fill="black"/>
<path d="M399.372 398.365H396.112V401.625H399.372V398.365ZM399.372 353.489L398.692 350.301L396.112 350.851V353.489H399.372ZM432.209 346.484L432.889 349.672L435.468 349.122V346.484H432.209ZM432.209 131.735H435.468V129.097L432.889 128.547L432.209 131.735ZM399.372 124.73H396.112V127.368L398.692 127.918L399.372 124.73ZM399.372 79.6347V76.3747H396.112V79.6347H399.372ZM549.762 79.6347L552.823 78.5114L552.038 76.3747H549.762V79.6347ZM626.818 289.568L623.758 290.691L624.542 292.828H626.818V289.568ZM628.131 289.568V292.828H630.43L631.202 290.663L628.131 289.568ZM702.998 79.6347V76.3747H700.7L699.928 78.5397L702.998 79.6347ZM851.637 79.6347H854.897V76.3747H851.637V79.6347ZM851.637 124.73L852.313 127.919L854.897 127.371V124.73H851.637ZM818.582 131.735L817.906 128.546L815.322 129.093V131.735H818.582ZM818.582 346.484H815.322V349.125L817.906 349.673L818.582 346.484ZM851.637 353.489H854.897V350.848L852.313 350.3L851.637 353.489ZM851.637 398.365V401.625H854.897V398.365H851.637ZM708.909 398.365H705.649V401.625H708.909V398.365ZM708.909 353.489L708.258 350.295L705.649 350.827V353.489H708.909ZM743.277 346.484L743.928 349.678L746.537 349.146V346.484H743.277ZM743.277 304.891L740.018 304.853L740.017 304.872V304.891H743.277ZM745.029 154.939L748.288 154.977L748.321 152.183L745.564 151.724L745.029 154.939ZM743.715 154.72L744.251 151.505L741.593 151.062L740.658 153.589L743.715 154.72ZM653.525 398.365V401.625H655.794L656.582 399.497L653.525 398.365ZM593.106 398.365L590.059 399.523L590.858 401.625H593.106V398.365ZM501.602 157.566L504.65 156.408L503.723 153.97L501.141 154.339L501.602 157.566ZM500.07 157.785L499.609 154.558L496.7 154.973L496.813 157.91L500.07 157.785ZM505.324 294.384H508.584V294.321L508.581 294.258L505.324 294.384ZM505.324 346.484H502.064V349.185L504.717 349.687L505.324 346.484ZM542.319 353.489H545.579V350.788L542.926 350.286L542.319 353.489ZM542.319 398.365V401.625H545.579V398.365H542.319ZM399.372 398.365H402.632V353.489H399.372H396.112V398.365H399.372ZM399.372 353.489L400.052 356.677L432.889 349.672L432.209 346.484L431.528 343.296L398.692 350.301L399.372 353.489ZM432.209 346.484H435.468V131.735H432.209H428.949V346.484H432.209ZM432.209 131.735L432.889 128.547L400.052 121.542L399.372 124.73L398.692 127.918L431.528 134.923L432.209 131.735ZM399.372 124.73H402.632V79.6347H399.372H396.112V124.73H399.372ZM399.372 79.6347V82.8946H432.209V79.6347V76.3747H399.372V79.6347ZM432.209 79.6347V82.8946H549.762V79.6347V76.3747H432.209V79.6347ZM549.762 79.6347L546.702 80.758L623.758 290.691L626.818 289.568L629.878 288.445L552.823 78.5114L549.762 79.6347ZM626.818 289.568V292.828H628.131V289.568V286.308H626.818V289.568ZM628.131 289.568L631.202 290.663L706.069 80.7297L702.998 79.6347L699.928 78.5397L625.061 288.473L628.131 289.568ZM702.998 79.6347V82.8946H851.637V79.6347V76.3747H702.998V79.6347ZM851.637 79.6347H848.377V124.73H851.637H854.897V79.6347H851.637ZM851.637 124.73L850.961 121.541L817.906 128.546L818.582 131.735L819.258 134.924L852.313 127.919L851.637 124.73ZM818.582 131.735H815.322V346.484H818.582H821.842V131.735H818.582ZM818.582 346.484L817.906 349.673L850.961 356.678L851.637 353.489L852.313 350.3L819.258 343.295L818.582 346.484ZM851.637 353.489H848.377V398.365H851.637H854.897V353.489H851.637ZM851.637 398.365V395.105H708.909V398.365V401.625H851.637V398.365ZM708.909 398.365H712.169V353.489H708.909H705.649V398.365H708.909ZM708.909 353.489L709.56 356.683L743.928 349.678L743.277 346.484L742.626 343.29L708.258 350.295L708.909 353.489ZM743.277 346.484H746.537V304.891H743.277H740.017V346.484H743.277ZM743.277 304.891L746.537 304.929L748.288 154.977L745.029 154.939L741.769 154.901L740.018 304.853L743.277 304.891ZM745.029 154.939L745.564 151.724L744.251 151.505L743.715 154.72L743.179 157.936L744.493 158.155L745.029 154.939ZM743.715 154.72L740.658 153.589L650.468 397.234L653.525 398.365L656.582 399.497L746.772 155.852L743.715 154.72ZM653.525 398.365V395.105H593.106V398.365V401.625H653.525V398.365ZM593.106 398.365L596.153 397.207L504.65 156.408L501.602 157.566L498.555 158.724L590.059 399.523L593.106 398.365ZM501.602 157.566L501.141 154.339L499.609 154.558L500.07 157.785L500.531 161.012L502.063 160.793L501.602 157.566ZM500.07 157.785L496.813 157.91L502.066 294.509L505.324 294.384L508.581 294.258L503.328 157.66L500.07 157.785ZM505.324 294.384H502.064V346.484H505.324H508.584V294.384H505.324ZM505.324 346.484L504.717 349.687L541.713 356.692L542.319 353.489L542.926 350.286L505.93 343.281L505.324 346.484ZM542.319 353.489H539.059V398.365H542.319H545.579V353.489H542.319ZM542.319 398.365V395.105H399.372V398.365V401.625H542.319V398.365Z" fill="black" mask="url(#path-5-outside-3_25334_1118)"/>
<path d="M996.419 307.793C986.144 307.793 978.419 309.847 973.046 313.75L973.047 313.751C967.842 317.638 965.288 322.699 965.288 329.066C965.288 335.245 967.465 339.959 971.763 343.401L972.177 343.726C976.493 347.018 982.027 348.719 988.896 348.719C994.296 348.719 999.709 347.744 1005.14 345.783C1010.47 343.782 1015.06 340.885 1018.92 337.1V307.793H996.419ZM1256.41 78.7168V137.244H1173.31V78.7168H1256.41ZM1126.81 397.929H1033.69L1033.21 397.313C1031.21 394.786 1029.1 391.461 1026.86 387.365C1025.12 384.172 1023.77 380.964 1022.82 377.743C1016.22 384.804 1008.91 390.454 1000.89 394.674L1000.03 395.119C990.736 399.861 979.031 402.182 965 402.182C941.92 402.182 922.887 396.282 908.035 384.359L907.331 383.787C892.332 371.443 884.838 354.972 884.838 334.535C884.838 320.557 888.928 308.127 897.112 297.304L897.117 297.298L897.121 297.292C905.465 286.46 917.842 278.07 934.121 272.054L935.677 271.485C951.87 265.701 971.839 262.837 995.534 262.837H1018.92V251.488C1018.92 243.077 1016.32 236.044 1011.15 230.287L1011.14 230.28L1011.14 230.274C1006.1 224.54 998.002 221.506 986.462 221.506C981.578 221.506 977.003 222.097 972.729 223.271L972.713 223.275L972.697 223.279C968.813 224.26 965.258 225.699 962.026 227.589L956.852 254.828L956.602 256.142H899.027L898.999 254.556L897.893 193.588L897.872 192.481L898.897 192.063C912.53 186.502 926.752 181.687 941.562 177.62L941.565 177.619L942.982 177.241C957.672 173.399 973.94 171.485 991.772 171.485C1024.58 171.485 1050.84 178.416 1070.38 192.449H1070.38C1090.01 206.418 1099.81 226.44 1099.81 252.299V342.18C1099.94 344.663 1100.22 347.041 1100.66 349.316L1125.44 353.194L1126.81 353.408V397.929ZM1284.29 397.929H1147.42V353.505L1148.67 353.216L1175.52 347.022V226.691L1143.42 220.463L1142.11 220.21V175.537H1256.41V347.025L1283.04 353.217L1284.29 353.507V397.929Z" fill="#35A7FF" stroke="black" stroke-width="3.23051"/>
<path d="M27.9141 159.569L217.738 101.395" stroke="black" stroke-width="15.2004"/>
<path d="M25.9297 159.568L219.75 195.224" stroke="black" stroke-width="15.2004"/>
<path d="M25.9297 322.83L219.75 375.375" stroke="black" stroke-width="15.2004"/>
<path d="M25.9297 155.812L217.752 285.298" stroke="black" stroke-width="15.2004"/>
<path d="M25.9297 321.322L217.752 285.33M25.9297 155.812L217.752 379.128" stroke="black" stroke-width="15.2004"/>
<path d="M27.9141 322.835L219.736 195.227" stroke="black" stroke-width="15.2004"/>
<path d="M27.9141 322.833L217.738 101.395" stroke="black" stroke-width="15.2004"/>
<path d="M217.766 105.15L343.649 240.265L217.766 196.671" stroke="black" stroke-width="15.2004"/>
<path d="M215.758 285.3L341.641 240.262" stroke="black" stroke-width="15.2004"/>
<path d="M217.766 379.13L341.651 240.262" stroke="black" stroke-width="15.2004"/>
<path d="M196.208 295.991L178.236 298.986L163.063 301.982L203.091 351.463L194.514 362.899M194.514 362.899L146.785 306.475L56.9259 322.949L190.225 358.611L194.514 362.899ZM193.084 375.367L50.125 335.737M200.232 264.258L164.492 239.955L201.662 214.222M193.084 202.785L151.626 229.947L130.182 215.651L151.626 189.919L191.655 197.067M205.95 127.017L163.063 177.053L194.514 182.771M228.824 129.876L316.029 222.799L245.979 198.496M238.831 211.363L316.029 238.525L240.261 267.117M247.409 282.842L314.599 258.539L231.683 350.033M331.755 261.398L243.12 358.611M58.7025 157.038L194.514 115.58L144.478 174.193L58.7025 157.038ZM133.041 187.06L115.886 207.074L67.2801 174.193L133.041 187.06ZM105.879 218.511L68.7097 192.778L97.3015 228.518L105.879 218.511ZM118.745 227.088L108.738 239.955L118.745 251.391L137.33 239.955L118.745 227.088ZM151.626 248.532L127.323 264.258L150.196 289.99L191.655 281.413L193.084 277.124L151.626 248.532ZM97.3015 251.391L68.7097 285.701L105.879 261.398L97.3015 251.391Z" stroke="black" stroke-width="2.85918"/>
<path d="M38.6797 181.344L88.7154 239.957L40.1093 297.141M115.878 271.408L65.8419 305.718L134.462 292.852L115.878 271.408Z" stroke="black" stroke-width="2.85918"/>
<path d="M219.509 79.3164C234.524 79.3165 246.541 90.7272 246.541 104.617C246.541 118.507 234.524 129.918 219.509 129.918C204.494 129.918 192.477 118.507 192.477 104.617C192.477 90.7272 204.493 79.3164 219.509 79.3164Z" fill="black" stroke="black" stroke-width="2.85918"/>
<path d="M241.688 119.869L331.752 217.081" stroke="black" stroke-width="2.85918"/>
<path d="M220.53 169.015C235.614 169.015 247.687 180.478 247.687 194.432C247.686 208.385 235.614 219.848 220.53 219.849C205.446 219.849 193.374 208.385 193.374 194.432C193.374 180.478 205.446 169.015 220.53 169.015Z" fill="black" stroke="black" stroke-width="2.87232"/>
<path d="M220.53 258.704C235.614 258.704 247.687 270.167 247.687 284.121C247.686 298.075 235.614 309.538 220.53 309.538C205.446 309.538 193.374 298.075 193.374 284.121C193.374 270.167 205.446 258.704 220.53 258.704Z" fill="black" stroke="black" stroke-width="2.87232"/>
<path d="M346.819 214.528C361.903 214.528 373.976 225.992 373.976 239.945C373.975 253.899 361.903 265.362 346.819 265.362C331.735 265.362 319.663 253.899 319.663 239.945C319.663 225.991 331.735 214.528 346.819 214.528Z" fill="black" stroke="black" stroke-width="2.87232"/>
<path d="M28.6865 295.624C43.7706 295.624 55.8428 307.087 55.8428 321.041C55.8426 334.995 43.7705 346.458 28.6865 346.458C13.6024 346.458 1.53049 334.995 1.53027 321.041C1.53027 307.087 13.6023 295.624 28.6865 295.624Z" fill="black" stroke="black" stroke-width="2.87232"/>
<path d="M28.6865 132.356C43.7706 132.357 55.8428 143.82 55.8428 157.773C55.8426 171.727 43.7705 183.19 28.6865 183.19C13.6024 183.19 1.53049 171.727 1.53027 157.773C1.53027 143.82 13.6023 132.356 28.6865 132.356Z" fill="black" stroke="black" stroke-width="2.87232"/>
<path d="M220.53 348.394C235.614 348.394 247.687 359.857 247.687 373.811C247.686 387.764 235.614 399.227 220.53 399.228C205.446 399.228 193.374 387.764 193.374 373.811C193.374 359.857 205.446 348.394 220.53 348.394Z" fill="black" stroke="black" stroke-width="2.87232"/>
<path d="M51.7891 144.479L192.533 101.395" stroke="black" stroke-width="2.87232"/>
<path d="M220.53 79.3232C235.614 79.3234 247.687 90.7865 247.687 104.74C247.686 118.694 235.614 130.157 220.53 130.157C205.446 130.157 193.374 118.694 193.374 104.74C193.374 90.7864 205.446 79.3232 220.53 79.3232Z" fill="black" stroke="black" stroke-width="2.87232"/>
</svg>
