<svg width="155" height="44" viewBox="0 0 155 44" fill="none" xmlns="http://www.w3.org/2000/svg">
<rect x="1" y="0.625" width="153" height="42.75" stroke="white" stroke-opacity="0.75" stroke-width="0.75"/>
<path d="M26.9771 11.5605C20.2343 11.5747 13.3337 14.5753 6.25 21.0638C20.169 36.9316 34.0891 35.5149 48.0081 21.0638C41.3628 15.1008 34.5792 11.7524 27.6291 11.5686C27.4119 11.5629 27.1946 11.5602 26.9771 11.5606V11.5605ZM27.0203 14.4266C27.1781 14.4263 27.3357 14.4282 27.4933 14.4323C32.5352 14.5656 37.4562 16.9948 42.2772 21.3204C32.1796 31.8044 22.0815 32.8318 11.9833 21.3204C17.1224 16.6133 22.1284 14.4364 27.0199 14.4263L27.0203 14.4266ZM27.1825 15.9872C25.5178 15.9872 23.9212 16.6287 22.7441 17.7705C21.567 18.9123 20.9057 20.461 20.9057 22.0758C20.9057 22.8754 21.0681 23.6671 21.3835 24.4058C21.6989 25.1445 22.1613 25.8157 22.7441 26.3811C23.9212 27.5229 25.5178 28.1644 27.1825 28.1644C28.8472 28.1644 30.4437 27.5229 31.6208 26.3811C32.7979 25.2392 33.4592 23.6906 33.4592 22.0758C33.4575 21.5681 33.3904 21.0625 33.2593 20.5709L27.1825 22.0758C27.1825 22.0758 29.8037 18.5449 30.8675 17.1551C29.797 16.3983 28.5071 15.9895 27.1825 15.9871L27.1825 15.9872Z" fill="white" fill-opacity="0.75"/>
<path d="M76.3299 12.8299H77.9568V31.5H76.0631V16.5639L68.7284 29.1262H67.7949L60.4603 16.6439V31.5H58.5666V12.8299H60.1935L68.3017 26.6724L76.3299 12.8299ZM92.2015 31.66C86.5472 31.66 82.3864 27.6059 82.3864 22.1649C82.3864 16.7239 86.5472 12.6699 92.2015 12.6699C97.8026 12.6699 101.99 16.6973 101.99 22.1649C101.99 27.6326 97.8026 31.66 92.2015 31.66ZM92.2015 29.8997C96.6824 29.8997 100.016 26.6191 100.016 22.1649C100.016 17.7108 96.6824 14.4302 92.2015 14.4302C87.694 14.4302 84.3334 17.7108 84.3334 22.1649C84.3334 26.6191 87.694 29.8997 92.2015 29.8997ZM121.323 31.5H119.163L114.896 25.4989C114.415 25.5522 113.935 25.5789 113.402 25.5789H108.388V31.5H106.414V12.8299H113.402C118.149 12.8299 121.03 15.2303 121.03 19.2311C121.03 22.1649 119.483 24.2187 116.763 25.0988L121.323 31.5ZM113.349 23.8986C117.083 23.8986 119.056 22.1649 119.056 19.2311C119.056 16.2438 117.083 14.5369 113.349 14.5369H108.388V23.8986H113.349ZM127.662 29.793H138.891V31.5H125.688V12.8299H138.491V14.5369H127.662V21.1781H137.317V22.8584H127.662V29.793Z" fill="white" fill-opacity="0.75"/>
</svg>
