<svg width="1342" height="300" viewBox="0 0 1342 300" fill="none" xmlns="http://www.w3.org/2000/svg">
<rect x="0.5" y="0.5" width="1341" height="299" stroke="white"/>
<path d="M257.545 50C192.955 50.1357 126.855 78.878 59 141.032C192.33 293.029 325.67 279.458 459 141.032C395.345 83.9119 330.365 51.8382 263.79 50.0776C261.71 50.0226 259.628 49.9965 257.545 50.0009V50ZM257.958 77.454C259.47 77.4508 260.98 77.4691 262.489 77.509C310.785 78.7856 357.924 102.055 404.104 143.49C307.379 243.916 210.649 253.757 113.919 143.49C163.146 98.4003 211.099 77.5477 257.954 77.4507L257.958 77.454ZM259.512 92.403C243.566 92.403 228.273 98.5477 216.997 109.485C205.721 120.423 199.387 135.257 199.387 150.725C199.387 158.384 200.942 165.969 203.964 173.045C206.985 180.121 211.414 186.55 216.997 191.966C228.273 202.903 243.566 209.048 259.512 209.048C275.458 209.048 290.751 202.903 302.027 191.966C313.302 181.028 319.637 166.194 319.637 150.725C319.621 145.862 318.977 141.019 317.722 136.31L259.512 150.725C259.512 150.725 284.62 116.903 294.811 103.59C284.556 96.3412 272.2 92.425 259.512 92.402L259.512 92.403Z" fill="white" fill-opacity="0.75"/>
<path d="M677.347 62.1591H692.932V241H674.792V97.9273L604.533 218.262H595.591L525.332 98.6938V241H507.193V62.1591H522.777L600.445 194.757L677.347 62.1591ZM829.382 242.533C775.218 242.533 735.363 203.699 735.363 151.58C735.363 99.4602 775.218 60.6262 829.382 60.6262C883.034 60.6262 923.145 99.2047 923.145 151.58C923.145 203.954 883.034 242.533 829.382 242.533ZM829.382 225.671C872.303 225.671 904.239 194.246 904.239 151.58C904.239 108.913 872.303 77.4883 829.382 77.4883C786.204 77.4883 754.013 108.913 754.013 151.58C754.013 194.246 786.204 225.671 829.382 225.671ZM1108.34 241H1087.65L1046.77 183.515C1042.17 184.026 1037.57 184.282 1032.46 184.282H984.428V241H965.522V62.1591H1032.46C1077.94 62.1591 1105.53 85.153 1105.53 123.476C1105.53 151.58 1090.71 171.252 1064.65 179.683L1108.34 241ZM1031.95 168.186C1067.72 168.186 1086.62 151.58 1086.62 123.476C1086.62 94.8615 1067.72 78.5103 1031.95 78.5103H984.428V168.186H1031.95ZM1169.06 224.649H1276.62V241H1150.15V62.1591H1272.79V78.5103H1169.06V142.127H1261.54V158.222H1169.06V224.649Z" fill="white" fill-opacity="0.75"/>
</svg>
