<svg width="205" height="58" viewBox="0 0 205 58" fill="none" xmlns="http://www.w3.org/2000/svg">
<rect width="205" height="58" fill="#35A7FF"/>
<path d="M35.1362 15.0811C26.1457 15.0999 16.945 19.1007 7.5 27.7521C26.0587 48.9091 44.6187 47.0202 63.1774 27.7521C54.317 19.8014 45.2722 15.3369 36.0054 15.0919C35.7159 15.0842 35.4262 15.0806 35.1362 15.0812V15.0811ZM35.1937 18.9025C35.4041 18.902 35.6143 18.9046 35.8244 18.9101C42.5469 19.0878 49.1083 22.3267 55.5363 28.0942C42.0728 42.0729 28.6086 43.4427 15.1444 28.0942C21.9965 21.8181 28.6712 18.9155 35.1932 18.902L35.1937 18.9025ZM35.4099 20.9833C33.1903 20.9833 31.0617 21.8386 29.4922 23.361C27.9227 24.8835 27.0409 26.9483 27.0409 29.1014C27.0409 30.1675 27.2574 31.2231 27.678 32.2081C28.0986 33.193 28.715 34.0879 29.4922 34.8418C31.0617 36.3642 33.1903 37.2195 35.4099 37.2195C37.6295 37.2195 39.7582 36.3642 41.3277 34.8418C42.8972 33.3193 43.779 31.2544 43.779 29.1014C43.7767 28.4244 43.6871 27.7503 43.5124 27.0949L35.4099 29.1014C35.4099 29.1014 38.9049 24.3935 40.3233 22.5405C38.896 21.5315 37.1761 20.9863 35.4099 20.9831L35.4099 20.9833Z" fill="white" fill-opacity="0.75"/>
<path d="M101.276 17.1065H103.445V42H100.92V22.0852L91.1405 38.835H89.8959L80.1163 22.1919V42H77.5914V17.1065H79.7607L90.5715 35.5633L101.276 17.1065ZM122.438 42.2134C114.899 42.2134 109.351 36.8079 109.351 29.5533C109.351 22.2986 114.899 16.8931 122.438 16.8931C129.906 16.8931 135.489 22.263 135.489 29.5533C135.489 36.8435 129.906 42.2134 122.438 42.2134ZM122.438 39.8663C128.412 39.8663 132.858 35.4921 132.858 29.5533C132.858 23.6144 128.412 19.2402 122.438 19.2402C116.428 19.2402 111.947 23.6144 111.947 29.5533C111.947 35.4921 116.428 39.8663 122.438 39.8663ZM161.267 42H158.387L152.697 33.9985C152.057 34.0696 151.416 34.1052 150.705 34.1052H144.019V42H141.388V17.1065H150.705C157.035 17.1065 160.876 20.3071 160.876 25.6414C160.876 29.5533 158.813 32.2915 155.186 33.4651L161.267 42ZM150.634 31.8648C155.613 31.8648 158.244 29.5533 158.244 25.6414C158.244 21.6585 155.613 19.3825 150.634 19.3825H144.019V31.8648H150.634ZM169.719 39.724H184.69V42H167.087V17.1065H184.157V19.3825H169.719V28.2375H182.592V30.4779H169.719V39.724Z" fill="white" fill-opacity="0.75"/>
</svg>
